<?xml version="1.0" standalone="no"?>
<!DOCTYPE svg PUBLIC "-//W3C//DTD SVG 20010904//EN"
 "http://www.w3.org/TR/2001/REC-SVG-20010904/DTD/svg10.dtd">
<svg version="1.0" xmlns="http://www.w3.org/2000/svg"
 width="1024.000000pt" height="1024.000000pt" viewBox="0 0 1024.000000 1024.000000"
 preserveAspectRatio="xMidYMid meet">

<g transform="translate(0.000000,1024.000000) scale(0.100000,-0.100000)"
fill="#000000" stroke="none">
<path d="M4350 8495 c-18 -26 -30 -48 -28 -50 3 -3 839 -506 1758 -1057 l615
-369 -3 -67 c-2 -37 -5 -68 -6 -69 -1 -1 -279 163 -617 366 -920 551 -1431
857 -1457 870 -28 15 63 88 -711 -577 l-631 -542 0 -503 -1 -502 -83 -62 c-45
-35 -86 -63 -90 -63 -4 0 -5 97 -4 215 2 118 2 215 0 215 -2 0 -16 -7 -32 -15
l-30 -16 0 -227 0 -227 -326 -255 c-180 -140 -331 -258 -337 -261 -10 -7 48
-99 63 -99 5 0 140 101 300 225 160 124 293 225 296 225 2 0 3 -122 2 -271
l-3 -270 -420 -234 -420 -234 -3 -70 c-2 -39 0 -71 3 -71 3 0 39 18 80 41 l75
41 0 -416 0 -416 -320 0 -320 0 0 -85 0 -85 2105 0 2104 0 15 -27 c23 -44 97
-110 151 -135 74 -34 190 -32 266 5 100 48 185 167 197 274 l5 45 36 -6 c51
-8 929 -106 951 -106 14 0 19 -11 25 -47 9 -65 29 -108 61 -138 57 -53 125
-17 160 83 l19 52 492 0 493 0 0 85 0 85 -295 0 -295 0 0 489 0 488 -192 112
-193 111 -5 -442 c-3 -244 -8 -438 -11 -433 -3 6 -9 22 -13 37 -10 43 -54 88
-85 88 -27 0 -71 -35 -71 -58 0 -6 -5 -14 -10 -17 -7 -4 -10 166 -10 504 l0
509 203 -120 c111 -66 264 -158 340 -203 l137 -83 0 96 0 97 -63 40 c-34 21
-127 82 -207 134 -165 107 -596 380 -682 431 l-58 35 0 175 -1 175 -190 105
c-105 58 -197 110 -205 115 -12 8 -14 74 -12 397 l3 387 205 -124 205 -124 28
44 c16 24 26 48 23 53 -3 5 -109 72 -236 148 l-230 138 0 236 0 236 -77 45
c-42 24 -80 45 -85 47 -4 2 -9 -99 -10 -225 l-3 -229 -1105 663 c-608 364
-1126 674 -1152 688 l-47 26 -31 -46z m532 -1294 c150 -87 487 -274 748 -416
261 -141 521 -283 578 -314 l102 -56 0 -189 c0 -149 -3 -186 -12 -179 -13 10
-340 182 -693 363 -110 56 -278 143 -372 192 l-173 89 -217 -158 c-120 -88
-224 -162 -230 -166 -10 -7 -13 95 -13 492 0 276 2 501 4 501 2 0 127 -71 278
-159z m-462 -974 l0 -353 -92 -51 c-687 -377 -884 -486 -892 -494 -6 -5 -14
-9 -18 -9 -4 0 -8 131 -8 290 l0 290 43 30 c58 41 961 649 965 650 1 0 2 -159
2 -353z m2200 11 l75 -44 3 -182 c1 -100 0 -182 -3 -182 -3 0 -50 25 -104 56
-98 56 -99 56 -105 101 -3 25 -6 111 -6 190 l0 145 33 -20 c17 -11 66 -40 107
-64z m-692 -231 l152 -77 0 -970 0 -970 -114 0 c-62 0 -134 3 -160 6 l-46 7 0
1044 c0 575 3 1043 8 1041 4 -2 76 -38 160 -81z m-878 -1207 l0 -1050 -225 0
-225 0 0 939 0 939 218 111 c119 61 220 110 225 111 4 0 7 -472 7 -1050z
m-1780 736 l0 -295 -84 -45 c-45 -26 -86 -46 -90 -46 -3 0 -5 125 -4 277 l3
277 80 63 c44 34 83 62 88 63 4 0 7 -133 7 -294z m1150 -921 l0 -865 -45 0
-45 0 -2 574 -3 574 -445 -169 c-245 -94 -449 -171 -455 -172 -5 -1 -10 14
-10 33 l0 34 265 109 c146 60 351 143 455 186 l190 77 3 153 c2 121 0 152 -10
148 -7 -3 -94 -42 -193 -87 -445 -203 -706 -320 -711 -320 -3 0 -4 24 -2 53
l3 52 105 52 c58 29 244 119 414 200 169 81 345 166 390 189 44 22 84 42 89
42 4 1 7 -387 7 -863z m2820 3 c0 -291 -4 -528 -9 -528 -4 0 -75 9 -156 20
-81 11 -152 20 -156 20 -5 0 -9 266 -9 594 l0 593 165 -86 164 -86 1 -527z
m-3970 243 l0 -209 -352 -127 c-194 -70 -381 -138 -415 -151 l-63 -23 0 142 0
142 223 118 c122 64 305 162 407 216 102 55 188 100 193 100 4 1 7 -93 7 -208z
m0 -696 l0 -415 -415 0 -415 0 2 266 3 265 405 149 c223 81 408 149 413 149 4
1 7 -186 7 -414z m4450 -277 c18 -74 -3 -208 -32 -208 -5 0 -16 16 -24 35 -31
75 -7 266 30 236 8 -7 20 -35 26 -63z m-1464 -59 c14 -15 19 -36 19 -74 0 -86
-51 -123 -94 -69 -41 52 -15 164 38 164 10 0 26 -9 37 -21z"/>
</g>
</svg>
